<svg width="154" height="154" viewBox="0 0 154 154" fill="none" xmlns="http://www.w3.org/2000/svg">
<path d="M1.40112 5.75048V105.386C1.40112 107.968 3.51396 110.081 6.09631 110.081H44.0099V147.987C44.0099 150.569 46.1228 152.681 48.7051 152.681H148.361C150.943 152.681 153.056 150.569 153.056 147.987V48.4684C153.056 45.8865 150.943 43.7741 148.361 43.7741H110.447V5.75048C110.447 3.16864 108.334 1.05621 105.752 1.05621H6.09631C3.51396 1.05621 1.40112 3.16864 1.40112 5.75048ZM48.8225 72.1744H148.478V148.104H48.8225V72.1744ZM48.8225 48.4684H108.099H148.478V67.4802H48.8225V48.4684ZM6.09631 29.4566H105.752V43.6567H48.8225C46.2402 43.6567 44.1273 45.7691 44.1273 48.351V105.269H6.2137V29.4566H6.09631ZM6.09631 5.75048H105.752V24.7623H6.09631V5.75048Z" fill="#83B6FF" stroke="#83B6FF" stroke-miterlimit="10"/>
<path d="M67.0163 55.6271H60.2083C58.9171 55.6271 57.8607 56.6833 57.8607 57.9743C57.8607 59.2652 58.9171 60.3214 60.2083 60.3214H67.0163C68.3075 60.3214 69.3639 59.2652 69.3639 57.9743C69.3639 56.6833 68.3075 55.6271 67.0163 55.6271Z" fill="#003B8D"/>
<path d="M83.2147 57.9743C83.2147 59.2652 84.2711 60.3214 85.5623 60.3214H92.3703C93.6615 60.3214 94.7179 59.2652 94.7179 57.9743C94.7179 56.6833 93.6615 55.6271 92.3703 55.6271H85.5623C84.3885 55.6271 83.2147 56.6833 83.2147 57.9743Z" fill="#003B8D"/>
<path d="M18.069 17.6035H24.877C26.1682 17.6035 27.2246 16.5473 27.2246 15.2564C27.2246 13.9655 26.1682 12.9092 24.877 12.9092H18.069C16.7779 12.9092 15.7214 13.9655 15.7214 15.2564C15.7214 16.5473 16.6605 17.6035 18.069 17.6035Z" fill="#003B8D"/>
<path d="M43.423 17.6035H50.2311C51.5222 17.6035 52.5786 16.5473 52.5786 15.2564C52.5786 13.9655 51.5222 12.9092 50.2311 12.9092H43.423C42.1319 12.9092 41.0754 13.9655 41.0754 15.2564C41.0754 16.5473 42.1319 17.6035 43.423 17.6035Z" fill="#003B8D"/>
<path d="M78.4022 126.041C78.8718 126.511 79.4586 126.745 80.0455 126.745C80.6324 126.745 81.2193 126.511 81.6888 126.041C82.6279 125.102 82.6279 123.577 81.6888 122.638L71.4768 112.428L81.6888 102.218C82.6279 101.279 82.6279 99.7533 81.6888 98.8144C80.7498 97.8755 79.2239 97.8755 78.2848 98.8144L66.4295 110.667C65.4905 111.606 65.4905 113.132 66.4295 114.071L78.4022 126.041Z" fill="#003B8D"/>
<path d="M116.316 126.041C116.785 126.511 117.372 126.745 117.959 126.745C118.546 126.745 119.133 126.511 119.602 126.041L131.458 114.188C132.397 113.249 132.397 111.724 131.458 110.785L119.602 98.9318C118.663 97.9929 117.137 97.9929 116.198 98.9318C115.259 99.8706 115.259 101.396 116.198 102.335L126.41 112.545L116.198 122.755C115.377 123.694 115.377 125.102 116.316 126.041Z" fill="#003B8D"/>
<path d="M87.323 138.598C87.6752 138.716 87.9099 138.833 88.2621 138.833C89.2011 138.833 90.0227 138.364 90.3749 137.425L111.738 89.7779C112.325 88.6044 111.738 87.1961 110.564 86.6093C109.39 86.0225 107.982 86.6093 107.395 87.7829L86.0318 135.43C85.6797 136.721 86.1492 138.129 87.323 138.598Z" fill="#003B8D"/>
</svg>
