<?xml version="1.0" encoding="utf-8"?>
<!-- Generator: Adobe Illustrator 27.5.0, SVG Export Plug-In . SVG Version: 6.00 Build 0)  -->
<svg version="1.1" id="Capa_1" xmlns="http://www.w3.org/2000/svg" xmlns:xlink="http://www.w3.org/1999/xlink" x="0px" y="0px"
	 viewBox="0 0 1280 1024" style="enable-background:new 0 0 1280 1024;" xml:space="preserve">
<style type="text/css">
	.st0{fill:#FC9D9D;}
	.st1{fill:#98FAC7;}
	.st2{opacity:0.6;enable-background:new    ;}
	.st3{fill:#FFFFFF;}
	.st4{fill:#C07358;}
	.st5{opacity:0.3;enable-background:new    ;}
	.st6{opacity:0.15;enable-background:new    ;}
	.st7{fill:#3F4249;}
	.st8{opacity:0.15;}
	.st9{fill:#FA9B9B;}
	.st10{fill:#E49779;}
	.st11{fill:#F2F2F2;}
	.st12{fill:#D2D3D5;}
	.st13{fill:#818181;}
	.st14{fill:#BDBDBD;}
	.st15{fill:#005A98;}
	.st16{fill:#82CDEB;}
</style>
<g id="User">
	<path class="st0" d="M212.8,477.36c0,0-0.07,0.07-0.09,0.11c0,0,0,0.07,0,0l0.07-0.14v0.03L212.8,477.36z"/>
	<path class="st0" d="M214.55,483.82c-0.21,0.17-0.29,0.29-0.09,0.29h0.23c0,0,0-0.09,0-0.13L214.55,483.82z"/>
	<g>
		<path d="M384.09,525.27c10.27,7.85,21,40.45,25.84,68.23c5.15,29.6-5.52,35.47,20.45,51.62c14.2,8.82,5.73,17.53,8.26,28.32
			c2.52,10.78,2.13,22.93-4.3,31.93c-4.46,6.25-15.71,14.96-22.85,17.76c-8.08,3.19-17.03,4.9-25.48,2.97
			c-10.64-2.42-19.35-10.39-25.02-19.7c-13.34-21.85-11.62-49.21-12.15-74.82c-0.82-38.63-7.74-76.84-14.64-114.84"/>
		<path d="M420.17,691.27c13.38,0,24.22-10.84,24.22-24.22s-10.84-24.22-24.22-24.22s-24.22,10.84-24.22,24.22
			S406.79,691.27,420.17,691.27z"/>
		<path class="st1" d="M516.6,819.94c0,0-43.84-112.36-45.48-115.09l-0.19-0.54c-5.48-9.49-13.88-16.63-25.58-20.27l-38.18-10.59
			l-9.87-2.75l-84.95-0.73l-14.98,3.1l-41.11,8.95c-18.63,4.02-30.33,22.29-26.31,40.92c5.85,26.12,10.78,50.6,10.78,50.6
			l12.61,78.55c2.92,14.61,4.39,29.6,3.29,44.4c-2.92,41.46-15.14,87.19-15.14,87.19h226.66c0,0-27-85.92-14.76-128.11l7.31-22.65
			l20.29,34.39c6.03,12.05,17.72,17.32,30.14,11.65l5.46-59.02L516.6,819.94z"/>
		<path class="st1" d="M460.33,832.55l27.21,45.7c5.19,8.72,14.6,14.07,24.76,14.07c16.74,0,29.97-14.23,28.74-30.93l-3.09-42.11
			l-7.32-116.49l-36-0.64l-9.71,90.68"/>
		<path class="st2" d="M493.72,710.66l37.46,0.83l-0.56-8.69l-36.03-0.37l-0.87,8.24V710.66z"/>
		<path class="st3" d="M504.9,721.63c1.6,0.61,2.39,2.42,1.77,4.02s-2.42,2.39-4.02,1.77c-1.6-0.61-2.39-2.42-1.77-4.02
			C501.51,721.8,503.31,721.01,504.9,721.63z"/>
		<path class="st2" d="M522.27,753.64c0.86,0.33,1.27,1.27,1,1.96l-2.89,9.47c-0.33,0.86-1.27,1.27-1.96,1
			c-0.86-0.33-1.27-1.27-1-1.96l2.89-9.47C520.47,753.72,521.41,753.31,522.27,753.64z"/>
		<path class="st2" d="M349.08,714.35c1.1,0.19,2.19,0.19,3.29,0.19c19,0,36.53-9.87,47.31-25.39l10.05-14.98l-2.75-0.73l-4.93-1.46
			l-66.86,3.66l-31.97-3.83l-5.85,1.27l-2.75,0.54l1.27,1.83l9.87,14.07c9.88,14.43,25.77,23.75,43.31,24.84L349.08,714.35z"/>
		<path d="M259.93,660.66c0,0,54.78-9.09,21.66-71.75l38.99-43.29c0,0-8.55,3.97-3.45,26.14c4.49,19.52,17.04,44.5,21.09,69.43
			c1.13,6.95-0.26,25.16-7.05,35.39c-2.95,4.45-9.82,7.18-9.82,7.18l-24.25,11.17l-37.18-34.26L259.93,660.66z"/>
		<path d="M273.8,527.42c-8.98-10.07-23.01-15.13-37.12-11.97c-20.73,4.63-33.79,25.18-29.17,45.94
			c4.63,20.73,25.18,33.79,45.94,29.17c6.19-1.39,11.7-4.19,16.24-7.99c-4.23-4.73-7.33-10.57-8.82-17.19
			C257.61,550.82,263.07,536.35,273.8,527.42z"/>
		<path class="st1" d="M282.61,544.62c-1.49-6.62-4.59-12.45-8.81-17.19c-10.71,8.94-16.19,23.39-12.94,37.95
			c1.49,6.62,4.59,12.45,8.82,17.19C280.38,573.62,285.84,559.16,282.61,544.62z"/>
		<path d="M332.68,498.12c-6.93,0.63-12.75,4-16.69,8.84c-1.06,1.32-2.52,2.22-4.16,2.55c-2.76,0.54-7.44,1.82-13.47,5.16
			c-21.75,12.04-31.61,32.57-22.16,61.18c6.45,19.57,17.24,33.33,35.73,38.72c4.07,1.17-4.85-37.78,6.33-60.51
			c1.8-3.65,3.93-6.92,6.23-9.89c4.69,2.2,10.09,2.96,15.54,1.73c13.94-3.1,22.38-17.69,17.59-31.58
			c-3.59-10.39-14.03-17.17-24.95-16.19L332.68,498.12z"/>
		<path class="st4" d="M376.85,584.28l8.41,75.64c0.54,4.75,4.02,8.76,8.59,10.05l8.22,2.19l-8.22,11.87
			c-9.49,13.7-24.85,22.29-41.46,22.11c-0.92-0.19-2.02-0.19-2.92-0.19c-15.34-0.92-29.23-9.14-38-21.73l-8.59-12.43l7.31-2.02
			c4.93-1.27,8.41-5.85,8.59-10.97l1.83-63.76l56.25-10.77L376.85,584.28z"/>
		<path class="st4" d="M403.6,584.12l-19.45-47.37c-3.5-8.64-13.55-12.78-22.19-9.27l-47.54,19.5c-6.75,2.83-10.02,10.42-7.19,17.17
			l20.99,51.09c8.25,20.13,31.14,29.74,51.27,21.49l2.69-1.16c20.12-8.26,29.65-31.33,21.42-51.46L403.6,584.12z"/>
		<path d="M399.68,555.04c-1.27,6.68-3.47,11.35-3.47,11.35l-9.41-22.82c-0.8-2.23-3.43-3.03-5.36-1.94
			c-8.61,4.66-30.38,14.28-48.96,4.29c0,0-0.5,14.76-13.21,21.48l2.57,6.06c2.76,6.58,4.39,13.75,4.69,21.03
			c0.1,1.9-2.17,3.12-3.76,1.94c-2.59-1.79-6.46-4.46-6.75-4.16c-2.19,2.55-3.3,18.29-5.68,15.46
			c-5.48-6.56-13.48-14.74-20.26-24.34l-8.28-0.31c4.66-5.38,1.5-11.42,1.5-11.42c-6.65-14.11-8.46-30.94,3.17-50.87
			c12.74-25.87,69.13-42.21,91.92-5.25c0.67,1.32,2.03,2.37,3.42,2.46c3.99,0.3,9.82,4.73,14.13,17.17
			C397.2,539.16,399.67,555.04,399.68,555.04L399.68,555.04z"/>
		<path class="st4" d="M328.67,621.19l-3.96-20.15c-4.53-18.5-27.25-13.3-21.98,4.86c5.26,18.33,23.94,15.44,23.94,15.44l2-0.16
			V621.19z"/>
		<path class="st5" d="M307.4,597.38c0.36,0.56,1.09,0.56,1.64,0.2c1.29-1.09,2.57-1.62,3.67-1.42c1.1,0.01,2,0.94,3.07,2.23
			c1.44,1.84,2.13,5.32,2.13,5.88l0.34,2.2c0.16,1.83,2.73,1.13,2.56-0.33l-0.16-2.02c-0.33-2.56-1.22-4.95-2.66-6.98
			c-1.26-2.03-2.89-3.15-4.7-3.35c-1.82-0.2-3.66,0.5-5.5,1.94c-0.57,0.34-0.57,1.07-0.4,1.63L307.4,597.38z"/>
		<path class="st3" d="M386.1,557.23c-4.86,2.14-8.39,6.33-9.54,11.22c-5.09-0.1-8.49,2.29-9.97,3.6
			c-4.89-3.86-11.74-5.08-17.74-2.33c-8.51,3.86-12.43,14.01-8.56,22.52c3.86,8.51,14.01,12.43,22.52,8.56
			c8.51-3.86,12.43-14.01,8.56-22.52c-0.79-1.66-1.99-3.36-3.23-4.66c1.19-1.02,4.03-2.82,7.84-3.03c-0.5,2.9,0.03,6.01,1.33,9.04
			c3.86,8.51,14.01,12.43,22.52,8.56c8.51-3.86,12.43-14.01,8.56-22.52c-3.92-8.68-14.01-12.43-22.29-8.45L386.1,557.23z
			 M361.78,599.04c-7.55,3.3-16.47,0.13-19.77-7.42s-0.13-16.47,7.42-19.77c7.55-3.3,16.47-0.13,19.77,7.42
			C372.62,586.58,369.27,595.56,361.78,599.04z M398.97,586.37c-7.55,3.3-16.47,0.13-19.77-7.42s-0.13-16.47,7.42-19.77
			c7.55-3.3,16.47-0.13,19.77,7.42C409.81,573.92,406.45,582.9,398.97,586.37z"/>
		<path class="st1" d="M321.27,618.74c2.02,0,3.66-1.64,3.66-3.66s-1.64-3.66-3.66-3.66s-3.66,1.64-3.66,3.66
			S319.25,618.74,321.27,618.74z"/>
		<path class="st6" d="M323.6,618.02c-0.56,0.54-1.29,0.9-2.02,0.89c-2.02,0.16-3.82-1.5-3.97-3.52c-0.17-1.29,0.39-2.37,1.32-3.09
			c-0.37,0.73-0.57,1.46-0.57,2.19c0.16,2.19,2.14,3.86,4.35,3.7c0.36,0,0.54,0.01,0.9-0.17H323.6z"/>
		<path class="st6" d="M319.6,633.98l6.25-12.85l-6.02,0.07L319.6,633.98L319.6,633.98z"/>
		<path class="st6" d="M383.25,641.96c-3.33-0.19-6.28-0.83-8.55-1.5c-8.04,1.93-14.64,1.4-19,0.64c-0.64-0.16-1.06-0.79-0.9-1.42
			c0.16-0.64,0.79-1.06,1.42-0.9c3.55,0.66,8.58,1.17,14.8,0.09c0.34-0.13,0.74-0.07,1.09-0.2c0.92-0.14,1.79-0.44,2.7-0.59
			c0.11-0.04,0.23-0.08,0.34-0.13c0.57-0.01,1.26-0.26,1.79-0.44c1.54-0.56,2.92-1.06,4.46-1.62c0.39-0.16,0.77-0.3,1.16-0.46
			l0.7,6.52L383.25,641.96z"/>
		<path d="M380.68,613.32c-1.67,0-3.5-0.28-5.49-0.85c-0.53-0.15-0.84-0.71-0.69-1.24c0.15-0.53,0.71-0.83,1.24-0.69
			c7.41,2.12,11.97-0.04,14.35-6.78c0.18-0.52,0.75-0.79,1.28-0.61c0.52,0.18,0.79,0.75,0.61,1.28
			C389.9,610.35,386.11,613.32,380.68,613.32z"/>
		<path class="st6" d="M452.48,758.02v16.99l4.39,7.68c7.68,13.88,9.49,30.14,4.93,45.13l-1.46,4.75l27.21,45.7
			c6.05,10.9,22.92,17.47,35.35,11.8l4.39-2.02c-10.41,3.47-24.65-2.77-28.85-11l-26.58-46.14c3.47-17.17,0.37-35.07-8.59-50.06
			l-5.12-8.59l-4.02-14.43c-0.37-0.9-1.83-0.71-1.64,0.2L452.48,758.02z"/>
		<path d="M530.85,869.27l2.37-1.1L530.85,869.27z"/>
		<path class="st3" d="M426.36,697.37c1.71,0,3.1-1.39,3.1-3.1s-1.39-3.1-3.1-3.1s-3.1,1.39-3.1,3.1S424.65,697.37,426.36,697.37z"
			/>
		<path class="st3" d="M483.72,766.43c1.71,0,3.1-1.39,3.1-3.1s-1.39-3.1-3.1-3.1s-3.1,1.39-3.1,3.1S482.01,766.43,483.72,766.43z"
			/>
		<path class="st3" d="M503.27,868.9c1.71,0,3.1-1.39,3.1-3.1s-1.39-3.1-3.1-3.1s-3.1,1.39-3.1,3.1S501.56,868.9,503.27,868.9z"/>
		<path class="st3" d="M260.47,726.96c1.71,0,3.1-1.39,3.1-3.1s-1.39-3.1-3.1-3.1s-3.1,1.39-3.1,3.1S258.76,726.96,260.47,726.96z"
			/>
		<path class="st3" d="M264.86,812.82c0,1.72-1.39,3.1-3.1,3.1s-3.1-1.39-3.1-3.1s1.39-3.1,3.1-3.1S264.86,811.11,264.86,812.82z"/>
		<path class="st3" d="M329.35,813.74c0,1.72-1.39,3.1-3.1,3.1s-3.1-1.39-3.1-3.1s1.39-3.1,3.1-3.1S329.35,812.03,329.35,813.74z"/>
		<path class="st3" d="M373.74,757.29c1.71,0,3.1-1.39,3.1-3.1s-1.39-3.1-3.1-3.1s-3.1,1.39-3.1,3.1S372.03,757.29,373.74,757.29z"
			/>
		<path class="st3" d="M320.75,892.29c1.71,0,3.1-1.39,3.1-3.1s-1.39-3.1-3.1-3.1s-3.1,1.39-3.1,3.1S319.04,892.29,320.75,892.29z"
			/>
		<path class="st3" d="M399.68,854.47c1.71,0,3.1-1.39,3.1-3.1s-1.39-3.1-3.1-3.1s-3.1,1.39-3.1,3.1S397.97,854.47,399.68,854.47z"
			/>
		<path class="st3" d="M440.97,787.8c0,1.72-1.39,3.1-3.1,3.1s-3.1-1.39-3.1-3.1s1.39-3.1,3.1-3.1
			C439.57,784.69,440.97,786.09,440.97,787.8z"/>
		<path class="st3" d="M278.19,958.42c1.72,0,3.1,1.39,3.1,3.1s-1.39,3.1-3.1,3.1s-3.1-1.39-3.1-3.1S276.48,958.42,278.19,958.42z"
			/>
		<path class="st3" d="M417.22,954.41c1.71,0,3.1-1.39,3.1-3.1s-1.39-3.1-3.1-3.1s-3.1,1.39-3.1,3.1S415.51,954.41,417.22,954.41z"
			/>
		<path class="st2" d="M345.42,942.71c0.73,0.37,0.92,1.27,0.54,2.02l-4.93,8.59c-0.37,0.73-1.27,0.92-2.02,0.54
			c-0.73-0.37-0.92-1.27-0.54-2.02l4.93-8.59C343.77,942.54,344.69,942.16,345.42,942.71z"/>
		<path class="st2" d="M447.55,703.4c0.73,0.37,0.92,1.27,0.54,2.02l-4.93,8.59c-0.37,0.73-1.27,0.92-2.02,0.54
			c-0.73-0.37-0.92-1.27-0.54-2.02l4.93-8.59C445.9,703.21,446.82,703.02,447.55,703.4z"/>
		<path class="st2" d="M391.1,809.72c0,0.73-0.73,1.46-1.46,1.46h-10.05c-0.73,0-1.46-0.73-1.46-1.46s0.73-1.46,1.46-1.46h10.05
			C390.54,808.26,391.27,808.99,391.1,809.72z"/>
		<path class="st2" d="M306.7,768.98c-0.54,0.37-1.46,0.37-2.02-0.37l-5.85-8.04c-0.37-0.54-0.37-1.46,0.37-2.02
			c0.54-0.37,1.46-0.37,2.02,0.37l5.85,8.04C307.61,767.5,307.43,768.42,306.7,768.98z"/>
		<path class="st2" d="M287.7,686.04c0.19,0.92-0.54,1.64-1.27,1.64l-9.87,0.92c-0.92,0.19-1.64-0.54-1.64-1.27
			c-0.19-0.92,0.54-1.64,1.27-1.64l9.87-0.92C286.79,684.58,287.52,685.13,287.7,686.04z"/>
		<path class="st2" d="M423.01,904.12c-0.54,0.37-1.46,0.37-2.02-0.37l-5.85-8.04c-0.37-0.54-0.37-1.46,0.37-2.02
			c0.54-0.37,1.46-0.37,2.02,0.37l5.85,8.04C423.92,902.66,423.74,903.74,423.01,904.12z"/>
		<path class="st2" d="M489.2,799.67c0.37,0.73,0.19,1.64-0.54,2.02l-8.59,4.93c-0.73,0.37-1.64,0.19-2.02-0.54
			s-0.19-1.64,0.54-2.02l8.59-4.93C487.91,798.57,488.82,798.94,489.2,799.67z"/>
		<path class="st2" d="M275.27,892.29c0,0.73-0.54,1.46-1.27,1.64l-9.87,1.83c-0.73,0-1.46-0.54-1.64-1.27
			c0-0.73,0.54-1.46,1.27-1.64l9.87-1.83C274.36,890.83,275.09,891.38,275.27,892.29z"/>
		<path class="st7" d="M521.56,903.12c0.11,0.21,0.01,0.49-0.2,0.6l-1.36,0.69l-0.4-0.79l1.36-0.69
			C521.17,902.82,521.45,902.9,521.56,903.12L521.56,903.12z"/>
		<path d="M521.56,903.12c0.11,0.21,0.01,0.49-0.2,0.6l-1.36,0.69l-0.4-0.79l1.36-0.69C521.17,902.82,521.45,902.9,521.56,903.12
			L521.56,903.12z"/>
		<path class="st7" d="M505.33,907.16l0.86,1.7l-77.65,38.98l-0.66-1.32c-0.1-0.21-0.01-0.47,0.19-0.59l77.27-38.78L505.33,907.16z"
			/>
		<path class="st7" d="M506.56,909.64l2.03,4.05l-77.27,38.78c-0.21,0.1-0.47,0.01-0.59-0.19l-1.84-3.66L506.56,909.64z"/>
		<path d="M505.33,907.16l0.86,1.7l-77.65,38.98l-0.66-1.32c-0.1-0.21-0.01-0.47,0.19-0.59l77.27-38.78L505.33,907.16z"/>
		<path d="M506.56,909.64l2.03,4.05l-77.27,38.78c-0.21,0.1-0.47,0.01-0.59-0.19l-1.84-3.66L506.56,909.64z"/>
		<path class="st7" d="M423.67,950.33l1.52,3.02c0.17,0.34,0.59,0.49,0.94,0.31l4.25-2.13l-2.14-4.26l-4.25,2.13
			C423.65,949.57,423.5,949.99,423.67,950.33L423.67,950.33z"/>
		<path class="st7" d="M505.33,907.16l3.27,6.52l4.33-2.17c1.8-0.9,8.16-5.92,7.26-7.72c-0.9-1.8-8.74,0.3-10.54,1.2L505.33,907.16
			L505.33,907.16z"/>
		<path class="st7" d="M441.97,947.11l-7.81,3.92l4.2,1.34l1.52-0.76l6.31-3.16l19.26-9.67l3.32-1.66l-0.3-0.61
			c-0.46-0.92-1.57-1.29-2.49-0.83c-0.69,0.34-1.07,1.06-1.02,1.79l-20.68,10.38L441.97,947.11L441.97,947.11z"/>
		<path class="st3" d="M506.19,908.96l-77.66,38.97l0.38,0.77l77.66-38.98L506.19,908.96L506.19,908.96z"/>
		<path class="st1" d="M298.12,756.24l-0.59,116.05l87.93,21.86l-1.66,39.33l-115.3-10.85c-13.94-1.27-24.78-12.47-25.82-26.25
			l-13.51-178.16L298.12,756.24z"/>
		<path class="st6" d="M297.48,867.36c0.07,2.97,2.19,5.55,5.06,6.13l6.96,1.47l68.33,17.36l-68.72-21.96l-7.33-89.01
			c-0.11-1.37-1.47-2.29-2.79-1.87c-0.89,0.29-1.5,1.12-1.5,2.04v85.83L297.48,867.36z"/>
		<path class="st2" d="M383.94,933.62l-8.21-0.87l2.1-40.41l7.89,1.8L383.94,933.62L383.94,933.62z"/>
		<path class="st2" d="M269.12,885.06c-0.09,0.66-0.69,1.34-1.6,1.27l-9.89-0.9c-0.66-0.09-1.34-0.69-1.27-1.6
			c0.09-0.66,0.69-1.34,1.6-1.27l9.89,0.9C268.62,883.4,269.19,884.15,269.12,885.06z"/>
		<path class="st2" d="M244.99,757.57c0.79,0.2,1.36,0.94,1.14,1.73l-1.94,9.71c-0.2,0.79-0.94,1.36-1.73,1.14
			c-0.79-0.2-1.36-0.94-1.14-1.73l1.94-9.71C243.46,757.92,244.2,757.37,244.99,757.57z"/>
		<path class="st2" d="M356.73,896.2c0.79,0.2,1.36,0.94,1.14,1.73l-1.94,9.71c-0.2,0.79-0.94,1.36-1.73,1.14
			c-0.79-0.2-1.36-0.94-1.14-1.73l1.94-9.71C355.07,896.44,355.94,895.98,356.73,896.2z"/>
		<g class="st8">
			<path class="st6" d="M270.09,923.05l113.86,10.57l0.3-9.21l-112.17-12.48c-14.21-1.52-26.02-11.61-30.01-25.06l0.77,9.67
				c1.12,13.11,10.17,24.68,27.25,26.52L270.09,923.05z"/>
		</g>
		<path class="st4" d="M385.47,894.15l73.89,16.01l12.97-1.33c1.07-0.21,2.24-0.24,3.3,0.27l14.07,5.96l-4.18,3.05
			c-1.56,1.13-1.34,3.52,0.21,4.43l11.37,6.23l-0.7,1.9c-0.7,1.9-2.34,2.72-4.36,2.57l-1.7-0.23c-0.87-0.04-1.74,0.64-2.17,1.29
			l-0.69,1.17c-1.09,1.67-3.37,2.06-5.36,1.77l-1.82-0.39c-0.97-0.21-1.83,0.34-2.32,1.26c-0.9,2.14-2.23,2.89-4.5,2.55l-3.56-0.47
			l-1.09,1c-2.02,1.9-4.02,2.34-6.58,1.36l-14.26-5.59l-64.21-3.47l1.67-39.35L385.47,894.15z"/>
		<path class="st6" d="M480.32,936.88c-0.97-0.21-1.83,0.34-2.32,1.26c-0.9,2.14-2.23,2.89-4.5,2.55l-3.56-0.47l-1.09,1
			c-2.02,1.9-4.02,2.34-6.58,1.36l-14.26-5.59l-64.21-3.47l0.43-8.38l64.21,3.47l14.26,5.59c0,0,8.81,3.73,10.49,3.73
			s3.05-0.89,4.02-1.84c0.96-0.97,3.1,0.8,3.1,0.8L480.32,936.88z"/>
		<path class="st4" d="M530.54,622.89c0,0,0.01,29.48-3.26,31.8l3.35,48.11l-36-0.64c0,0,8.85-38.16,0.97-60.12
			c-2.72-7.58-5.29-14.81-4.12-20.58l36.83-0.71C529.54,620.74,530.53,621.69,530.54,622.89L530.54,622.89z"/>
		<path class="st4" d="M491.42,621.84l0.56-37.75c0.03-1.53,1.32-2.75,2.85-2.66c1.33,0.07,2.4,1.1,2.53,2.43l4.12,37.59
			l-10.05,0.39L491.42,621.84z"/>
		<path class="st4" d="M494.62,702.16l0.74-46.73c-9.95-6.29-8.98-34.46-9.02-34.94c-0.74-4.02-2.44-13.95-2.44-13.95
			c-0.16-0.59,0.2-1.15,0.8-1.3c2.36-0.66,5.15,0.66,6.42,3.52l2.79,6.43l3.19,9.52c0,0,6.51,1.27,8.41,6.63
			c3.59,10.14-0.93,15.9-0.93,15.9l-9.95,54.92L494.62,702.16z"/>
		<path class="st6" d="M500.32,619.38l0.51,24.11c0.03,1.66,1.22,3.07,2.83,3.4c2.02,0.41,3.97-0.97,4.23-3.03l3.56-23.29
			l-11.14-1.19H500.32z"/>
		<path class="st6" d="M511.45,620.58l-3.42,25.82c-0.2,1.77,1.09,3.48,2.96,3.88c1.9,0.41,3.75-0.64,4.18-2.39l5.63-26.97
			L511.45,620.58L511.45,620.58z"/>
		<path class="st6" d="M522.12,620.4l-5.05,21.8c-0.39,1.69,1.07,3.66,2.76,4c1.52,0.31,3.02-0.54,3.52-2.02l7.21-20.52
			c0,0,0.46-2.07-1.59-2.93l-6.85-0.34L522.12,620.4z"/>
		<path class="st4" d="M501.17,619.9l0.43,22.16c0.03,1.66,1.22,3.07,2.83,3.4c2.02,0.41,3.97-0.97,4.23-3.03l2.79-21.85
			c0.29-2.2-1.29-4.2-3.5-4.45l-2.37-0.27c-2.37-0.26-4.45,1.63-4.4,4.03L501.17,619.9z"/>
		<path class="st4" d="M511.35,621.21l-3.13,23.56c-0.23,1.77,0.93,3.42,2.69,3.77c1.77,0.36,3.52-0.73,3.97-2.47l5.98-22.95
			c0.6-2.29-0.82-4.62-3.12-5.16l-1.23-0.29C514.08,617.07,511.68,618.73,511.35,621.21L511.35,621.21z"/>
		<path class="st4" d="M520.6,621.56l-3.57,19.02c-0.31,1.7,0.83,3.32,2.53,3.59c1.53,0.24,2.99-0.67,3.43-2.16l5.53-18.62
			c0.5-1.69-0.54-3.43-2.27-3.79l-2.12-0.43C522.51,618.84,520.91,619.91,520.6,621.56L520.6,621.56z"/>
		<path class="st6" d="M489.44,750.63l-3.97,37.18l-5.48-61.51l9.45,24.34V750.63z"/>
		<path class="st9" d="M458.59,928.81l-3.99-7.38l-4.93,2.47l8.92,4.9L458.59,928.81z"/>
		<path d="M274.2,753.24c26.16,0,47.37-21.21,47.37-47.37s-21.21-47.37-47.37-47.37s-47.37,21.21-47.37,47.37
			S248.04,753.24,274.2,753.24z"/>
		<path d="M319.85,621.2c0,0,10.02,74.77-4.03,101.27c-14.06,26.51-23.92-61.53-23.92-61.53L319.85,621.2L319.85,621.2z"/>
		<path class="st1" d="M469.47,584.18c1.09,0.64,2.12,1.34,3.19,2.02c1.04,0.69,2.07,1.4,3.09,2.13s2.2,1.26,3,2.23
			c0.82,0.96,1.54,2,1.96,3.42c0.03,0.09-0.03,0.19-0.11,0.21c-0.03,0.01-0.06,0.01-0.07,0c-1.46-0.23-2.59-0.82-3.66-1.49
			c-1.07-0.66-1.76-1.76-2.62-2.66c-0.86-0.9-1.7-1.83-2.53-2.77c-0.82-0.96-1.64-1.89-2.43-2.89c-0.06-0.06-0.04-0.16,0.03-0.2
			c0.04-0.03,0.1-0.03,0.16,0H469.47z"/>
		<path class="st1" d="M483.71,588.07c-0.23-2-0.39-4-0.57-6.01l-0.43-6.01c-0.13-2-0.5-4-0.29-6.01c0.19-2,0.5-4,1.29-6.01
			c0.03-0.09,0.11-0.11,0.2-0.09c0.04,0.01,0.07,0.04,0.09,0.09c0.79,2,1.1,4,1.29,6.01c0.21,2-0.16,4-0.29,6.01l-0.43,6.01
			c-0.19,2-0.34,4-0.57,6.01c-0.01,0.09-0.09,0.14-0.16,0.13C483.78,588.19,483.73,588.13,483.71,588.07z"/>
		<ellipse class="st10" cx="345.78" cy="610.78" rx="10.23" ry="6.48"/>
		<path class="st10" d="M399.9,598.07c1.4,1.66,3.92,2.04,6.66,1.28c0.03-4.46-0.7-8.99-2.26-13.4c-0.25,0.19-0.49,0.38-0.74,0.58
			C399.24,590.17,397.6,595.33,399.9,598.07z"/>
		<path d="M378.35,598.57c-0.5,0-0.93-0.37-0.99-0.88c-0.07-0.55,0.32-1.05,0.87-1.12l5.59-0.69c0.65-0.08,1.55-0.32,2.2-0.97
			c1.19-1.2,1.28-2.81,0.97-3.92c-0.31-1.09-1.02-1.87-1.91-2.09c-2.63-0.64-4.72-1.78-6.22-3.39l-0.09-0.1
			c-0.35-0.43-0.28-1.06,0.15-1.41c0.43-0.34,1.06-0.28,1.41,0.15c1.22,1.31,2.98,2.26,5.23,2.8c1.6,0.4,2.86,1.71,3.36,3.5
			c0.59,2.11,0.03,4.36-1.47,5.87c-0.83,0.84-2,1.38-3.38,1.55l-5.59,0.69C378.43,598.57,378.39,598.57,378.35,598.57z"/>
	</g>
</g>
<g id="Mesa">
	<g>
		<rect x="34.64" y="866.92" class="st11" width="1210.71" height="45.98"/>
		<rect x="80.62" y="912.9" class="st12" width="1123.87" height="34.06"/>
		<rect x="80.62" y="946.96" class="st11" width="1123.87" height="64.65"/>
		<rect x="61.02" y="1011.61" class="st11" width="1162.77" height="7.58"/>
	</g>
</g>
<g id="Laptop">
	<g>
		<path class="st13" d="M867.57,671.8h-13.35c-4.34,0-8.11,2.95-9.16,7.16l-42.6,171.2c-0.56,2.26-2.59,3.85-4.92,3.85H660.81
			c-2.8,0-5.07,2.27-5.07,5.07v10.7h163.2L867.57,671.8L867.57,671.8z"/>
		<path class="st14" d="M811.75,860.63l43-178.73c1.43-5.93,6.73-10.11,12.83-10.11h215.53c4.78,0,8.31,4.45,7.22,9.11
			l-41.86,178.69c-1.4,5.97-6.72,10.18-12.84,10.18H818.96c-4.8,0-8.33-4.49-7.21-9.15V860.63z"/>
		
			<ellipse transform="matrix(0.283 -0.9591 0.9591 0.283 -51.486 1472.7704)" class="st3" cx="959.32" cy="770.82" rx="17" ry="9.99"/>
	</g>
</g>
<g id="Graph">
	<path class="st15" d="M535.81,55.67c0-3.47-1.01-6.86-2.93-9.74c-1.92-2.89-4.65-5.14-7.85-6.47c-3.2-1.33-6.72-1.69-10.12-1.01
		c-3.4,0.67-6.53,2.33-8.98,4.78s-4.13,5.57-4.81,8.97s-0.33,6.92,0.99,10.13c1.33,3.2,3.57,5.94,6.45,7.87s6.27,2.96,9.74,2.96
		c4.64,0,9.08-1.84,12.37-5.12c3.28-3.28,5.13-7.72,5.15-12.35l0,0L535.81,55.67z"/>
	<path class="st15" d="M551.36,55.25c0-6.54-1.94-12.94-5.57-18.37c-3.63-5.44-8.8-9.68-14.84-12.18
		c-6.04-2.5-12.69-3.16-19.11-1.88c-6.41,1.28-12.31,4.43-16.93,9.05s-7.77,10.52-9.05,16.93s-0.62,13.06,1.88,19.11
		c2.5,6.04,6.74,11.21,12.18,14.84s11.83,5.57,18.37,5.57c8.77,0,17.18-3.49,23.38-9.69c6.2-6.2,9.69-14.61,9.7-23.38l0,0H551.36z
		 M493.75,55.25c0-4.86,1.43-9.61,4.13-13.64c2.7-4.04,6.53-7.19,11.02-9.05c4.49-1.86,9.42-2.35,14.19-1.4
		c4.76,0.95,9.14,3.29,12.57,6.72s5.77,7.81,6.72,12.57c0.95,4.76,0.46,9.7-1.4,14.19s-5.01,8.32-9.05,11.02
		c-4.04,2.7-8.79,4.13-13.64,4.13c-6.51,0-12.74-2.6-17.34-7.19C496.35,68,493.76,61.76,493.75,55.25L493.75,55.25L493.75,55.25z"/>
	<path class="st15" d="M515.39,386.92V80.79h5.69v306.12h-5.69V386.92z"/>
	<path class="st15" d="M416.8,58.04h75.84v-5.72h-77.01"/>
	<path class="st15" d="M779.83,470.36V257.09c0-0.75-0.3-1.47-0.83-2L577.11,53.2c-0.54-0.53-1.26-0.83-2.02-0.83h-28.42v5.72h27.25
		l200.17,200.17v212.1h5.73L779.83,470.36z"/>
	<path class="st15" d="M613.12,328.18V213.97c0-0.75-0.3-1.47-0.83-2l-91.51-76.78l-4.03,4.02l90.74,75.94v113.04h5.63
		L613.12,328.18z"/>
	<path class="st15" d="M949.81,327.12L835.12,212.43c-0.53-0.54-1.26-0.84-2.02-0.84h-98.77v5.72h97.6l113.86,113.86L949.81,327.12
		L949.81,327.12z"/>
	<path class="st15" d="M624.83,328.18c0,7.19-5.83,13.03-13.03,13.03s-13.03-5.83-13.03-13.03s5.83-13.03,13.03-13.03
		S624.83,320.98,624.83,328.18z"/>
	<path class="st15" d="M806.61,495.94c0.01-5.96-1.74-11.79-5.04-16.75s-8-8.83-13.5-11.12s-11.56-2.89-17.41-1.73
		s-11.21,4.03-15.43,8.24c-4.21,4.21-7.08,9.58-8.24,15.43s-0.56,11.9,1.73,17.41c2.29,5.5,6.16,10.19,11.12,13.5
		s10.79,5.06,16.75,5.05c7.96-0.03,15.58-3.2,21.2-8.82C803.42,511.52,806.59,503.9,806.61,495.94L806.61,495.94L806.61,495.94z
		 M752.11,495.94c0-4.83,1.43-9.55,4.11-13.56s6.49-7.14,10.95-8.99c4.46-1.85,9.37-2.33,14.1-1.39c4.73,0.94,9.08,3.27,12.5,6.68
		c3.41,3.41,5.74,7.76,6.68,12.5c0.94,4.73,0.46,9.64-1.39,14.1s-4.98,8.28-8.99,10.95c-4.01,2.69-8.73,4.12-13.56,4.12
		c-6.47-0.01-12.67-2.59-17.25-7.16c-4.58-4.58-7.15-10.77-7.16-17.24L752.11,495.94z"/>
	<path class="st15" d="M776.52,508.98c2.58,0.01,5.11-0.74,7.26-2.16c2.15-1.43,3.84-3.46,4.83-5.85c1-2.37,1.27-5,0.77-7.53
		c-0.49-2.54-1.73-4.86-3.55-6.7c-1.82-1.83-4.14-3.08-6.67-3.59c-2.53-0.51-5.16-0.25-7.54,0.73c-2.39,0.98-4.43,2.66-5.86,4.8
		c-1.44,2.15-2.2,4.67-2.2,7.25c0,3.45,1.36,6.75,3.79,9.19c2.43,2.45,5.73,3.83,9.18,3.85l0,0L776.52,508.98z"/>
	<path class="st15" d="M428.79,375.03h179.02c9.39,0,17.01,7.62,17.01,17.01v73.85c0,9.39-7.62,17.01-17.01,17.01H428.79
		c-9.39,0-17.01-7.62-17.01-17.01v-73.85C411.78,382.65,419.4,375.03,428.79,375.03z"/>
	<g>
		<rect x="521.08" y="402.82" class="st16" width="78.36" height="11.55"/>
		<rect x="521.08" y="423.27" class="st16" width="51.72" height="11.55"/>
		<rect x="521.08" y="442.69" class="st16" width="25.86" height="11.55"/>
	</g>
	<path class="st15" d="M925.64,309.09h179.02c9.39,0,17.01,7.62,17.01,17.01v73.85c0,9.39-7.62,17.01-17.01,17.01H925.64
		c-9.39,0-17.01-7.62-17.01-17.01V326.1C908.63,316.71,916.25,309.09,925.64,309.09z"/>
	<g>
		<rect x="1018.46" y="336.88" class="st16" width="78.36" height="11.55"/>
		<rect x="1018.46" y="357.33" class="st16" width="51.72" height="11.55"/>
		<rect x="1018.46" y="376.75" class="st16" width="25.86" height="11.55"/>
	</g>
	<path class="st16" d="M948.15,384.47h10.72V366.6h15.73v17.87h10.72v-27.88l-18.59-13.94l-18.59,13.94v27.88H948.15z
		 M943.86,388.76v-34.32l22.88-17.16l22.88,17.16v34.32h-19.3v-17.87h-7.15v17.87h-19.3H943.86z"/>
	<path class="st16" d="M444.84,433.03v-11.65h-7.15v31.46h48.61v-31.46h-32.89v-4.29h32.89c1.14,0,2.14,0.43,3,1.29
		s1.29,1.86,1.29,3v31.46c0,1.14-0.43,2.14-1.29,3s-1.86,1.29-3,1.29h-48.61c-1.14,0-2.14-0.43-3-1.29s-1.29-1.86-1.29-3v-31.46
		c0-1.14,0.43-2.14,1.29-3s1.86-1.29,3-1.29h7.15v-17.16h21.45v10.37h-17.16v22.73H444.84z M437.69,421.38v13.37V421.38v31.46
		V421.38z"/>
	<path class="st15" d="M241.66,0.51h179.02c9.39,0,17.01,7.62,17.01,17.01v73.85c0,9.39-7.62,17.01-17.01,17.01H241.66
		c-9.39,0-17.01-7.62-17.01-17.01V17.52C224.65,8.13,232.27,0.51,241.66,0.51z"/>
	<g>
		<rect x="331.17" y="68.17" class="st16" width="78.36" height="11.55"/>
		<rect x="331.17" y="46.86" class="st16" width="51.72" height="11.55"/>
		<rect x="331.17" y="25.55" class="st16" width="25.86" height="11.55"/>
	</g>
	<path class="st16" d="M276.41,63.47h5.42V74.3h-5.42 M276.41,47.21h5.42v10.83h-5.42 M276.41,30.95h5.42v10.83h-5.42 M257.45,79.7
		h43.34V25.55h-43.34v54.17V79.7z"/>
</g>
</svg>
